<svg width="200" height="195" viewBox="0 0 200 195" fill="none" xmlns="http://www.w3.org/2000/svg">
<path d="M20 175.659C20 186.342 28.6596 195 39.3412 195H150.658C161.342 195 170 186.34 170 175.659V64.3418C170 53.6584 161.34 45 150.659 45H39.3418C28.6584 45 20 53.6596 20 64.3412V175.658V175.659Z" fill="#563D7C"/>
<path d="M82.202 111.35V90.1084H100.9C102.681 90.1084 104.398 90.2566 106.051 90.5537C107.705 90.8502 109.168 91.3799 110.44 92.1434C111.712 92.9068 112.729 93.9668 113.493 95.3232C114.256 96.6803 114.638 98.4188 114.638 100.538C114.638 104.354 113.493 107.111 111.203 108.806C108.914 110.503 105.988 111.35 102.426 111.35H82.202V111.35ZM62.2314 74.5898V165.41H106.242C110.313 165.41 114.277 164.902 118.136 163.884C121.994 162.866 125.428 161.297 128.439 159.178C131.449 157.058 133.845 154.322 135.625 150.973C137.407 147.623 138.297 143.659 138.297 139.08C138.297 133.398 136.919 128.544 134.163 124.516C131.407 120.488 127.23 117.668 121.633 116.057C125.704 114.107 128.778 111.605 130.856 108.552C132.933 105.499 133.972 101.684 133.972 97.1039C133.972 92.8641 133.272 89.3027 131.873 86.4193C130.474 83.5365 128.502 81.2256 125.958 79.4871C123.414 77.7486 120.362 76.4977 116.8 75.7348C113.239 74.9713 109.295 74.5898 104.97 74.5898H62.2314V74.5898ZM82.202 149.892V124.961H103.953C108.277 124.961 111.754 125.957 114.383 127.95C117.012 129.943 118.327 133.271 118.327 137.935C118.327 140.31 117.924 142.26 117.118 143.786C116.312 145.313 115.231 146.521 113.874 147.411C112.518 148.302 110.949 148.938 109.168 149.32C107.387 149.701 105.522 149.892 103.571 149.892H82.202V149.892Z" fill="white"/>
<path d="M0.000522142 0.0764134C0.164835 0.046301 0.299557 -0.000346182 0.433757 1.93727e-06C5.97164 0.0214113 11.5099 0.0132299 17.0471 0.0905125C18.9342 0.116621 20.6682 0.782401 22.2186 1.88594C25.7574 4.40406 26.0843 11.598 21.2262 14.1784C20.9791 14.3096 20.733 14.4423 20.3974 14.6215C21.3206 15.0454 22.2288 15.3294 22.9902 15.8351C25.9121 17.7762 27.1022 22.1193 25.7941 25.934C24.6526 29.2622 21.9425 30.6366 18.7908 31.3677C17.7557 31.6079 16.6716 31.7325 15.6085 31.74C10.4318 31.7774 5.25469 31.7567 0 31.7567C0.000522179 21.2087 0.000522142 10.6592 0.000522142 0.0764134V0.0764134ZM5.53719 27.1138C9.38739 27.1138 13.1265 27.2015 16.8587 27.0821C19.2049 27.0071 20.9002 24.4923 20.7591 22.0462C20.62 19.6352 19.1353 17.5847 16.8403 17.4775C13.1403 17.3047 9.43021 17.3536 5.72413 17.3149C5.66878 17.3146 5.61256 17.3961 5.53702 17.4547L5.53719 27.1138V27.1138ZM5.55007 13.1875C8.99141 13.1875 12.3102 13.3128 15.6142 13.1459C18.0474 13.0228 19.4207 11.0773 19.3297 8.41788C19.2491 6.0632 17.8587 4.64705 15.3556 4.58091C12.2171 4.49858 9.07513 4.5367 5.9344 4.52939C5.80664 4.52904 5.6787 4.59797 5.55007 4.63452V13.1875V13.1875ZM177.158 8.83528H181.775V11.3094C182.289 10.913 182.914 10.4728 183.492 9.97693C187.029 6.94133 195.419 7.31382 198.29 13.427C200.761 18.6881 200.653 23.979 197.318 28.877C195.471 31.5899 192.61 32.5595 189.37 32.385C186.555 32.2331 184.076 31.3482 182.126 28.7418V40.278H177.159C177.158 29.7877 177.158 19.3414 177.158 8.83528V8.83528ZM181.848 20.42C182.056 21.5721 182.17 22.7519 182.492 23.8716C183.209 26.3704 185.395 28.2182 187.658 28.3778C190.686 28.5914 192.86 27.4727 193.955 24.7884C195.346 21.377 195.296 17.9365 193.263 14.7483C190.866 10.9874 185.12 11.3017 183.088 15.2415C182.251 16.8634 181.842 18.5704 181.848 20.42V20.42ZM173.888 28.475C173.888 29.4178 173.921 30.3754 173.864 31.328C173.85 31.5631 173.555 31.9603 173.364 31.9767C171.924 32.0966 170.461 32.3065 169.039 32.1582C167.786 32.0274 167.096 30.9652 166.709 29.7371C163.735 32.1588 160.324 32.6825 156.695 32.2329C153.66 31.8571 151.147 29.3655 150.931 26.599C150.632 22.786 152.097 20.3032 155.521 19.3993C157.922 18.7657 160.423 18.5111 162.878 18.0831C163.474 17.9793 164.077 17.8947 164.658 17.7357C165.776 17.4307 166.582 16.8121 166.664 15.5401C166.748 14.2252 166.239 13.2007 165.003 12.7031C162.894 11.8545 160.747 11.8756 158.67 12.8472C157.723 13.2903 157.16 14.1822 156.664 15.6971H151.798C151.802 13.8421 152.447 12.2831 153.68 10.9705C155.307 9.23649 157.429 8.55574 159.713 8.31675C162.105 8.06663 164.483 8.07777 166.806 8.86121C169.931 9.9148 171.427 11.9762 171.423 15.2764C171.418 18.7795 171.421 22.2826 171.421 25.7863C171.42 28.2725 171.42 28.2725 173.888 28.475V28.475ZM166.368 20.5699C164.834 20.8355 163.431 21.0391 162.046 21.3288C160.59 21.6334 159.106 21.8972 157.717 22.4058C156.355 22.9047 155.893 24.1771 155.938 25.5435C155.981 26.8498 156.873 27.5817 158.023 27.9836C159.996 28.6727 161.973 28.5878 163.854 27.7079C165.201 27.0776 166.227 26.0472 166.348 24.4728C166.447 23.1614 166.368 21.8363 166.368 20.5699V20.5699ZM41.1651 8.17333C48.7961 8.08369 53.271 13.6773 52.799 21.2936C52.6352 23.9409 51.9238 26.415 50.1813 28.5072C48.3035 30.7614 45.8874 31.9485 42.9909 32.2705C40.5721 32.5401 38.2218 32.3817 35.9806 31.3645C32.643 29.8493 30.7391 27.2052 29.9383 23.6821C29.3891 21.2673 29.4132 18.8627 30.0288 16.4741C31.387 11.2049 35.4445 8.19387 41.1651 8.17333V8.17333ZM34.5225 20.3276C34.7228 21.4456 34.8275 22.5914 35.142 23.6763C35.9425 26.4385 38.1226 28.2623 40.6151 28.3831C43.6962 28.5324 45.8519 27.2364 46.9968 24.3665C48.1148 21.5648 48.1166 18.6975 46.8908 15.9296C45.0749 11.8289 40.1274 10.7804 36.9416 13.8284C35.1249 15.5662 34.656 17.8754 34.5225 20.3276ZM67.6405 8.17368C74.5232 8.16288 79.2063 12.8009 79.2933 19.6994C79.3302 22.6123 78.8557 25.3899 77.1458 27.8301C74.6981 31.3235 71.1626 32.5457 67.0922 32.3603C65.5925 32.2919 64.0378 31.9588 62.6401 31.4101C59.3584 30.1219 57.4016 27.5855 56.532 24.1907C55.7688 21.2095 55.8537 18.2472 56.8246 15.3335C58.3137 10.8639 62.3985 8.18151 67.6405 8.17368V8.17368ZM74.2376 19.7081C74.1265 19.0963 74.017 17.9141 73.6872 16.7966C72.8487 13.9546 70.6328 12.2291 67.8409 12.1078C65.2115 11.9932 62.8466 13.5436 61.8267 16.2588C60.6256 19.4568 60.714 22.6422 62.5239 25.622C64.4093 28.7261 68.6833 29.4064 71.4864 27.0903C73.625 25.3231 74.1483 22.8831 74.2376 19.7081V19.7081ZM116.792 15.2076C115.221 15.2076 113.692 15.2205 112.163 15.1912C111.975 15.1878 111.682 14.9991 111.621 14.8301C110.762 12.4427 108.739 12.1588 106.648 12.1468C105.781 12.1415 104.858 12.3527 104.055 12.6895C102.339 13.4094 102.148 15.351 103.757 16.281C104.872 16.9263 106.182 17.2728 107.441 17.6272C109.221 18.1287 111.06 18.4307 112.829 18.9652C117.352 20.3324 119.12 24.8678 116.587 28.6066C115.372 30.3995 113.556 31.3701 111.472 31.873C108.393 32.616 105.328 32.6705 102.319 31.5838C99.0992 30.4206 97.3985 28.0861 97.1475 24.5525H102.06C103.457 28.1986 107.404 29.6185 111.102 27.7554C111.957 27.3241 112.528 26.7109 112.585 25.7027C112.646 24.6253 112.23 23.6988 111.263 23.3381C109.539 22.6951 107.739 22.2542 105.969 21.7354C104.503 21.3054 102.99 20.9949 101.576 20.4351C98.847 19.3544 97.6613 17.4951 97.678 14.6605C97.6926 12.1882 99.1379 10.0699 101.7 9.14075C105.227 7.86193 108.827 7.70284 112.369 9.09062C114.764 10.0288 116.192 11.8791 116.785 14.3702C116.839 14.6001 116.792 14.855 116.792 15.2076ZM90.1198 8.7714H94.6668V12.4895H90.2112C90.1797 12.9347 90.1391 13.2463 90.1386 13.5577C90.1343 17.3106 90.1325 21.0633 90.1404 24.8155C90.1412 25.3149 90.1799 25.8157 90.2291 26.3131C90.327 27.3055 90.8778 27.8948 91.877 27.9491C92.7925 27.9994 93.7131 27.9599 94.6826 27.9599V31.6777C92.6059 32.1917 90.4953 32.1645 88.452 31.7093C86.0728 31.1795 85.1062 29.5425 85.0853 26.4439C85.0566 22.2267 85.0768 18.0089 85.0759 13.7915V12.5516H81.2995V8.79107H85.0249V1.90491H90.1203C90.1198 4.15742 90.1198 6.39339 90.1198 8.7714ZM132.644 31.8209C130.688 31.8209 128.836 31.8818 126.99 31.8035C125.201 31.7276 123.823 30.5411 123.432 28.7702C123.209 27.7603 123.091 26.7301 123.08 25.6959C123.04 21.7282 123.063 17.7595 123.063 13.7913V12.5365H119.299V8.8257H123.007V1.91153H128.112V8.71361H132.638V12.4514H128.295C128.244 12.7882 128.176 13.0211 128.176 13.2545C128.172 17.2942 128.159 21.334 128.185 25.3734C128.199 27.5098 128.759 28.024 130.876 28.0088C131.442 28.0052 132.008 28.0085 132.644 28.0085L132.644 31.8209V31.8209ZM141.136 8.84816V12.7602C143.097 9.43161 145.81 7.6971 149.817 8.28838V13.1145C147.913 12.8284 146.077 12.7774 144.451 13.9458C142.318 15.4791 141.574 17.7196 141.521 20.1894C141.439 24.0074 141.499 27.8289 141.499 31.7323H136.499V8.84781C138.014 8.84816 139.496 8.84816 141.136 8.84816V8.84816Z" fill="#573E7D"/>
</svg>
