<svg width="150" height="212" viewBox="0 0 150 212" fill="none" xmlns="http://www.w3.org/2000/svg">
<path d="M117.544 7.83455H105.102L118.043 21.8859V28.5686H91.3806V20.7425H104.322L91.3806 6.69113V0H117.552L117.544 7.83455ZM86.087 7.83455H73.6279L86.5867 21.8859V28.5686H59.9153V20.7425H72.8572L59.9153 6.69113V0H86.087V7.83455ZM54.9351 8.15641H41.5105V20.4207H54.9351V28.5771H31.9565V0H54.9351V8.15641Z" fill="#131313"/>
<path d="M13.6533 194.729L0 41.6206H150L136.33 194.704L74.9068 211.728L13.6533 194.729Z" fill="#1572B6"/>
<path d="M75 198.718L124.633 184.955L136.304 54.1389H75V198.718Z" fill="#33A9DC"/>
<path d="M75 109.608H99.8504L101.561 90.3811H75V71.6121H122.092L121.643 76.6516L117.027 128.402H75V109.608Z" fill="white"/>
<path d="M75.1016 158.377H75.0169L54.105 152.727L52.7667 137.753H33.9299L36.564 167.236L75.0338 177.942H75.1439V158.377H75.1016Z" fill="#EBEBEB"/>
<path d="M98.258 127.58L95.9966 152.71L75.0508 158.36V177.925L113.546 167.253L113.825 164.077L117.095 127.572H98.258V127.58Z" fill="white"/>
<path d="M75.0678 71.6121V90.3896H29.7206L29.331 86.1716L28.4755 76.6516L28.0266 71.6121H75.0678ZM75.0001 109.608V128.385H54.3253L53.9611 124.167L53.1057 114.647L52.6568 109.608H74.9916H75.0001Z" fill="#EBEBEB"/>
</svg>
