<svg width="250" height="56" viewBox="0 0 250 56" fill="none" xmlns="http://www.w3.org/2000/svg">
<path d="M77.5596 55.7904V1.09467H80.5287V9.69894C80.8793 9.31778 81.2033 8.91286 81.4981 8.48707C82.7114 5.96864 84.6174 3.84822 86.9927 2.37437C89.368 0.900526 92.1143 0.134316 94.9095 0.16556C101.676 -0.0364183 107.17 2.46812 110.401 8.48707C112.457 12.2261 113.589 16.403 113.702 20.6687C113.814 24.9344 112.904 29.165 111.048 33.0072C108.038 39.7533 100.605 43.1062 92.6474 41.8741C90.1709 41.6631 87.7867 40.8355 85.7122 39.4666C83.6377 38.0977 81.939 36.2312 80.771 34.0373V55.7904H77.5596ZM80.5287 20.4442C80.7912 23.1103 80.8922 25.0089 81.1952 26.8671C82.3667 34.1787 86.689 38.5213 93.4755 39.309C96.662 39.8328 99.9316 39.2353 102.727 37.6185C105.522 36.0016 107.671 33.4654 108.806 30.4421C110.11 27.3324 110.737 23.9808 110.647 20.6099C110.556 17.2389 109.75 13.9259 108.28 10.8906C107.069 8.18086 105.009 5.93887 102.411 4.50326C99.8129 3.06764 96.8183 2.51636 93.8794 2.93267C91.1202 3.13258 88.4917 4.1873 86.3596 5.95017C84.2275 7.71304 82.6977 10.0965 81.9829 12.769C81.3503 15.2972 80.8647 17.8598 80.5287 20.4442V20.4442Z" fill="black"/>
<path d="M174.267 27.8769C173.817 31.7279 171.984 35.2844 169.108 37.885C166.233 40.4857 162.511 41.9535 158.634 42.0154C146.192 42.6415 140.355 34.3806 139.426 24.8472C138.781 19.6701 139.622 14.4163 141.85 9.69886C143.401 6.46296 145.942 3.80476 149.105 2.10901C152.268 0.413255 155.888 -0.232054 159.442 0.266481C162.821 0.55284 166.023 1.89482 168.597 4.10241C171.171 6.30999 172.985 9.27128 173.782 12.567C174.414 15.5685 174.88 18.6029 175.176 21.656H142.476C141.87 30.3006 146.515 37.2487 153.1 38.9251C161.3 40.9449 168.309 37.3901 170.854 29.5937C171.419 27.5941 172.449 27.3114 174.267 27.8769ZM142.476 18.8889H171.702C171.52 9.67866 165.784 3.01338 158.008 2.91239C149.202 2.77101 142.859 9.19392 142.476 18.8889Z" fill="black"/>
<path d="M180.286 28.0785H183.154C183.26 30.1889 183.946 32.2292 185.136 33.9753C186.326 35.7213 187.975 37.1054 189.9 37.9754C192.318 39.0636 194.951 39.5924 197.601 39.5224C200.252 39.4525 202.853 38.7856 205.21 37.5715C206.495 36.9923 207.571 36.0331 208.293 34.8232C209.016 33.6132 209.349 32.2108 209.25 30.8052C209.324 29.4495 208.953 28.1067 208.195 26.9805C207.437 25.8542 206.332 25.0058 205.049 24.5641C201.898 23.3926 198.545 22.7463 195.333 21.7162C191.992 20.7646 188.725 19.5698 185.558 18.1412C180.387 15.6164 180.064 5.78009 185.921 2.66962C188.92 0.977119 192.296 0.0626812 195.739 0.00975975C199.183 -0.0431617 202.584 0.767116 205.634 2.36665C207.482 3.38771 208.974 4.94769 209.912 6.8386C210.851 8.72951 211.19 10.8615 210.886 12.9503H208.422C208.422 12.8291 208.199 12.7281 208.199 12.607C207.896 4.75 201.312 2.32626 194.243 3.01298C192.132 3.27329 190.083 3.89505 188.183 4.85099C187.042 5.37281 186.091 6.236 185.462 7.32137C184.832 8.40675 184.555 9.66077 184.669 10.9103C184.672 12.1605 185.063 13.3789 185.786 14.3986C186.509 15.4184 187.53 16.1894 188.708 16.6061C191.819 17.7372 195.071 18.4643 198.262 19.353C200.827 20.06 203.493 20.5245 205.978 21.3728C207.731 21.9476 209.269 23.0414 210.387 24.5093C211.505 25.9773 212.151 27.7502 212.239 29.5933C212.539 31.6128 212.195 33.6755 211.256 35.4883C210.317 37.3011 208.83 38.7721 207.008 39.6922C200.262 43.5096 189.153 42.4997 184.204 37.6725C182.95 36.4111 181.958 34.914 181.286 33.2673C180.613 31.6207 180.273 29.8571 180.286 28.0785Z" fill="black"/>
<path d="M248.595 12.9505H245.908C245.908 12.5869 245.767 12.2638 245.727 11.9608C245.683 9.94718 244.949 8.00967 243.647 6.47271C242.346 4.93575 240.556 3.89266 238.577 3.51809C234.843 2.44676 230.859 2.63847 227.246 4.06343C225.817 4.473 224.56 5.33356 223.66 6.51662C222.761 7.69969 222.269 9.14182 222.257 10.6277C222.207 12.087 222.661 13.5189 223.545 14.6817C224.428 15.8445 225.685 16.667 227.104 17.0102C231.144 18.2625 235.284 19.03 239.384 20.1611C240.713 20.48 242.022 20.8779 243.303 21.3528C245.216 22.0373 246.878 23.283 248.072 24.9272C249.266 26.5714 249.937 28.5375 249.996 30.5687C250.054 32.5998 249.499 34.6015 248.403 36.3121C247.306 38.0227 245.719 39.3627 243.848 40.157C240.998 41.4513 237.909 42.136 234.778 42.1673C231.648 42.1986 228.546 41.5758 225.67 40.3387C223.305 39.3188 221.31 37.5989 219.952 35.4106C218.594 33.2223 217.939 30.6706 218.076 28.0989H219.207H220.701C221.187 30.4424 222.237 32.6322 223.76 34.4786C225.282 36.3251 227.232 37.7725 229.44 38.6955C231.649 39.6186 234.049 39.9895 236.432 39.776C238.816 39.5626 241.112 38.7713 243.121 37.4706C244.345 36.8348 245.361 35.8613 246.048 34.6656C246.736 33.4699 247.066 32.1022 246.999 30.7246C247.06 29.3681 246.677 28.0288 245.908 26.9098C245.139 25.7908 244.026 24.9531 242.737 24.5238C239.586 23.3524 236.234 22.7262 233.022 21.6961C229.662 20.7593 226.374 19.5779 223.186 18.1615C218.136 15.6772 217.732 5.92164 223.489 2.81117C226.525 1.04776 229.967 0.100487 233.478 0.0615534C236.989 0.0226193 240.45 0.893347 243.525 2.58899C245.284 3.63875 246.699 5.17705 247.599 7.01665C248.499 8.85626 248.845 10.9178 248.595 12.9505V12.9505Z" fill="black"/>
<path d="M72.6517 41.0253C71.5942 41.4257 70.4267 41.4249 69.3697 41.023C68.3128 40.621 67.4397 39.8458 66.9155 38.8439C63.6233 33.9157 59.9877 29.2096 56.4934 24.4025L54.9786 22.3827C50.8179 27.9573 46.6571 33.3097 42.8599 38.8641C42.3652 39.8217 41.5393 40.5668 40.536 40.9606C39.5328 41.3545 38.4205 41.3703 37.4065 41.0051L53.0194 20.0599L38.4972 1.13457C39.5425 0.757114 40.6861 0.751939 41.7349 1.11992C42.7836 1.48789 43.6732 2.20648 44.2536 3.15435C47.6266 8.08262 51.3632 12.7887 55.0796 17.7776C58.8162 12.8291 62.5124 8.10283 65.9662 3.21495C66.4637 2.27295 67.29 1.54666 68.2881 1.17425C69.2862 0.801838 70.3863 0.809283 71.3792 1.19517L65.744 8.66837C63.2193 12.001 60.735 15.3538 58.1093 18.6057C57.8977 18.7951 57.7284 19.0271 57.6126 19.2864C57.4967 19.5456 57.4368 19.8264 57.4368 20.1104C57.4368 20.3944 57.4967 20.6752 57.6126 20.9345C57.7284 21.1938 57.8977 21.4257 58.1093 21.6152C62.9365 28.0179 67.7234 34.4408 72.6517 41.0253V41.0253Z" fill="black"/>
<path d="M138.941 0.933105V3.7608C136.898 3.62682 134.85 3.92266 132.929 4.62924C131.007 5.33582 129.255 6.43744 127.786 7.86299C126.317 9.28854 125.162 11.0063 124.398 12.9055C123.634 14.8047 123.276 16.843 123.348 18.889C123.348 25.5408 123.348 32.1926 123.348 38.8444C123.348 39.5514 123.348 40.2583 123.348 41.1066H120.46V1.09469H123.288V9.295C126.782 3.31645 132.175 1.09469 138.941 0.933105V0.933105Z" fill="black"/>
<path d="M0 19.7977C0.424154 17.7779 0.686726 15.5763 1.27246 13.5161C4.76669 1.09447 19.0062 -4.07617 28.8021 3.6192C34.5383 8.12332 35.9723 14.5058 35.6896 21.6963H3.37304C2.84789 34.5421 12.1187 42.298 23.9748 38.3393C25.8981 37.6513 27.6197 36.4953 28.9844 34.9755C30.349 33.4557 31.3137 31.6199 31.7914 29.634C32.4175 27.6142 33.4274 27.2709 35.3462 27.8566C35.0301 30.3155 34.1607 32.6707 32.8034 34.7453C31.446 36.8198 29.636 38.5596 27.5094 39.8339C23.9958 41.7553 19.9646 42.5165 15.9923 42.0086C12.02 41.5007 8.31 39.7498 5.39282 37.0062C2.50687 33.7613 0.761872 29.6613 0.424154 25.3319C0.424154 24.6451 0.161583 23.9584 0.0201978 23.3121C0.00673259 22.1137 0 20.9422 0 19.7977ZM3.41343 18.9291H32.6397C32.4579 9.61795 26.5803 3.01326 18.7436 2.95267C10.0181 2.83148 3.77699 9.29478 3.39323 18.8888L3.41343 18.9291Z" fill="black"/>
</svg>
