<svg width="150" height="212" viewBox="0 0 150 212" fill="none" xmlns="http://www.w3.org/2000/svg">
<path d="M13.6507 194.719L0 41.6086H150L136.334 194.695L74.9079 211.725L13.6507 194.719Z" fill="#E44D26"/>
<path d="M75 198.708L124.635 184.947L136.314 54.1282H75V198.708Z" fill="#F16529"/>
<path d="M75.0001 110.915H50.1519L48.4354 91.6854H75.0001V72.9067H27.9124L28.3623 77.9447L32.9776 129.693H75.0001V110.915ZM75.0001 159.684L74.9176 159.706L54.0042 154.059L52.6671 139.083H33.8169L36.448 168.568L74.9142 179.246L75.0001 179.222V159.684Z" fill="#EBEBEB"/>
<path d="M13.9561 0H23.4988V9.42818H32.2281V0H41.7712V28.5511H32.2281V18.9907H23.4988V28.5511H13.9567L13.9561 0ZM54.3211 9.46841H45.9204V0H72.2703V9.46841H63.8655V28.5511H54.3214V9.46841H54.3211ZM76.4515 0H86.4026L92.5237 10.0323L98.6389 0H108.593V28.5511H99.0882V14.3993L92.5226 24.5509H92.3587L85.7887 14.3993V28.5511H76.4512V0H76.4515ZM113.342 0H122.887V19.1141H136.308V28.5511H113.342V0Z" fill="black"/>
<path d="M74.9353 110.915V129.693H98.0592L95.879 154.047L74.9353 159.699V179.236L113.432 168.568L113.714 165.394L118.127 115.957L118.585 110.915H113.526H74.9353ZM74.9353 72.9067V91.6854H120.294L120.67 87.4642L121.526 77.9447L121.975 72.9067H74.9353Z" fill="white"/>
</svg>
