<svg width="200" height="218" viewBox="0 0 200 218" fill="none" xmlns="http://www.w3.org/2000/svg">
<path opacity="0.85" d="M150.137 0.0861581C152.539 0.0516943 154.957 0.0172319 157.376 0C157.41 1.34409 157.462 4.01503 157.496 5.35911C155.026 5.35911 152.556 5.34188 150.103 5.34188C150.103 4.03226 150.137 1.41301 150.137 0.0861581V0.0861581Z" fill="#101010"/>
<path d="M3.60206 1.18872C8.0103 1.22318 12.4358 1.24042 16.8783 1.25765C16.5009 9.18432 18.0446 17.4211 15.8148 25.141C12.9332 30.6897 5.7633 29.6041 0.600344 29.7075C0.394512 27.9498 0.188679 26.1922 0 24.4345C2.96741 24.1933 6.19212 24.7792 8.91939 23.2455C10.6861 17.7486 9.89711 11.8725 9.45114 6.22042C7.94171 6.25488 4.93997 6.28935 3.43054 6.30658C3.48199 5.03142 3.5506 2.46388 3.60206 1.18872Z" fill="#131313"/>
<path d="M91.9214 3.36023C97.1186 -0.672031 103.945 0.982238 109.726 2.55034C109.709 4.08398 109.691 7.15125 109.691 8.68488C105.215 6.87554 96.7069 2.92944 95.5749 10.3736C99.8116 11.666 104.288 12.4242 108.131 14.7333C112.213 18.0763 111.064 25.6755 106.364 27.9674C101.012 31.1553 94.6657 29.4148 89.0225 28.2603C88.6966 25.8995 88.3707 23.556 88.0791 21.1952C92.8304 23.2975 102.453 28.2775 103.877 20.2302C99.1083 18.4209 93.1734 18.1624 89.7086 14.0268C88.182 10.5115 88.4394 5.6176 91.9214 3.36023V3.36023Z" fill="#131313"/>
<path d="M186.758 2.17139C188.765 2.17139 190.789 2.17139 192.83 2.17139C192.882 4.11859 192.95 6.0658 193.036 8.013C194.58 8.03023 197.684 8.0647 199.245 8.08193C199.279 9.27093 199.331 11.6317 199.365 12.8035C197.787 12.7862 194.631 12.7518 193.053 12.7173C193.139 16.6634 192.127 20.9714 194.099 24.6073C195.575 24.7624 198.525 25.0553 200 25.2104C199.846 32.465 191.612 29.1738 187.255 28.0365C186.861 23.6079 186.672 19.1793 186.672 14.7334C185.557 13.1653 184.442 11.58 183.345 10.0119C184.185 9.23646 185.866 7.68559 186.707 6.91015C186.724 5.72115 186.741 3.34315 186.758 2.17139V2.17139Z" fill="#131313"/>
<path d="M22.2299 8.23712C27.8216 7.94418 35.6433 5.85913 39.1596 11.6663C40.4117 17.4217 39.6227 23.4012 39.8114 29.26C37.3071 29.036 34.8028 28.7948 32.3157 28.5707C29.4684 28.812 26.1235 30.9315 23.4992 29.036C19.1424 26.9337 19.0738 19.1794 23.6536 17.3011C26.9812 15.9225 30.6176 15.6813 34.0996 14.8542C30.7891 11.4078 26.0893 12.7174 21.9212 13.1654C22.0069 11.9247 22.1613 9.46059 22.2299 8.23712V8.23712ZM27.6845 20.0754C27.4958 21.7469 27.3243 23.4184 27.1699 25.1071C29.0738 25.0037 30.9778 24.9176 32.8989 24.8142C33.0361 23.0048 33.1905 21.1955 33.3449 19.3861C31.4409 19.6102 29.5541 19.8514 27.6845 20.0754Z" fill="#131313"/>
<path d="M42.3672 7.63379C44.0138 7.96119 47.3243 8.616 48.971 8.94341C50.7034 12.9412 51.887 17.1458 53.5679 21.178C54.9745 16.8701 56.278 12.5104 57.5473 8.15075C59.194 8.11628 62.5044 8.06457 64.1511 8.03011C61.8183 15.4226 59.2112 22.7289 56.2952 29.9318C54.031 29.6389 51.8012 29.1564 49.64 28.5188C46.5182 21.8329 44.4598 14.6989 42.3672 7.63379V7.63379Z" fill="#131313"/>
<path d="M66.278 13.1305C66.7583 11.4935 67.3072 9.85641 67.9075 8.25385C73.2248 7.47841 80.4289 6.34111 84.0824 11.3384C85.3346 17.3006 84.5627 23.4696 84.6828 29.518C82.1613 29.1734 79.6571 28.8287 77.1528 28.4841C72.6588 30.8793 65.163 30.0177 65.2659 23.6592C64.4083 16.1116 73.7909 16.0082 78.8852 15.0087C75.8149 10.8731 70.4976 13.0616 66.278 13.1305ZM72.4872 20.23C72.2985 21.7809 72.127 23.349 71.9555 24.8998C73.8423 24.9515 75.7291 25.0032 77.633 25.0377C77.8045 23.125 77.9761 21.2294 78.1476 19.3167C76.2608 19.6096 74.374 19.9198 72.4872 20.23Z" fill="#131313"/>
<path d="M112.162 18.7654C111.63 9.39127 123.499 4.48018 130.601 9.47742C130.772 10.8043 131.098 13.4752 131.252 14.8021C127.993 13.7682 124.649 11.4246 121.15 13.01C117.445 16.5597 118.216 25.572 124.494 25.0378C126.227 24.4864 129.674 23.3835 131.407 22.8321C131.098 24.3141 130.498 27.278 130.206 28.7427C122.779 32.258 111.578 28.1051 112.162 18.7654V18.7654Z" fill="#131313"/>
<path d="M134.1 7.5647C136.673 8.25397 139.297 8.94326 141.887 9.68423C143.825 8.97772 145.781 8.28843 147.753 7.58192C147.839 9.23619 148.045 12.5447 148.148 14.199C145.678 14.3196 143.208 14.4402 140.772 14.5608C140.601 19.5064 140.549 24.4347 140.515 29.3803C138.902 29.3975 135.661 29.4147 134.048 29.432C133.962 22.1429 133.945 14.8538 134.1 7.5647V7.5647Z" fill="#131313"/>
<path d="M161.99 8.02977C166.724 9.09815 171.493 8.77075 176.21 7.823C183.603 9.35664 183.774 19.8853 180.961 25.3995C178.628 30.1555 172.916 29.7075 168.508 29.4662C168.543 31.9821 168.577 34.4807 168.611 36.9966C166.964 36.9793 163.637 36.9449 161.973 36.9104C161.973 27.295 161.956 17.6624 161.99 8.02977ZM168.68 13.0959C168.611 17.111 168.577 21.1432 168.611 25.1583C170.738 24.5724 173.482 24.986 175.095 23.1421C176.296 19.8681 175.352 16.3356 175.112 12.9581C172.968 12.9926 170.824 13.0443 168.68 13.0959V13.0959Z" fill="#131313"/>
<path d="M150.755 8.08179C152.282 8.08179 155.335 8.08179 156.844 8.08179C156.947 15.1986 156.947 22.2981 156.844 29.4148C155.318 29.4148 152.282 29.4148 150.755 29.4148C150.635 22.3153 150.635 15.1986 150.755 8.08179Z" fill="#131313"/>
<path d="M23.4824 43.252C40.5836 42.5282 57.7192 43.4587 74.8375 43.1658C93.7226 42.5627 112.591 43.0624 131.493 43.1313C146.484 43.1658 161.476 43.0624 176.467 43.183C171.75 95.4473 166.999 147.712 162.625 200.01C142.539 205.749 122.436 211.401 102.35 217.104C99.7776 218.173 97.136 217.173 94.666 216.501C75.5751 210.987 56.4842 205.525 37.3589 200.217C32.3847 147.936 27.702 95.6024 23.4824 43.252V43.252ZM100.292 56.8824C99.5889 82.6613 100.189 108.44 99.9834 134.219C100.172 157.792 99.6403 181.383 100.258 204.956C117.136 200.958 133.791 196.047 150.447 191.205C154.632 146.454 158.714 101.702 162.213 56.8996C141.579 56.6928 120.927 56.9341 100.292 56.8824V56.8824ZM78.817 157.551C68.9027 154.828 59.1085 151.692 49.0571 149.538C48.7655 155.535 48.8684 161.532 49.5545 167.494C64.2715 171.095 78.6797 175.834 93.4139 179.367C93.5168 145.23 93.3624 111.077 93.4825 76.9403C88.6798 76.8197 83.877 76.7507 79.0743 76.6473C78.5254 103.598 79.04 130.583 78.817 157.551V157.551Z" fill="#D6BA32"/>
<path d="M100.292 56.8827C120.926 56.9344 141.578 56.6931 162.213 56.8999C158.714 101.703 154.631 146.454 150.446 191.205C133.791 196.047 117.136 200.958 100.257 204.956C99.6399 181.383 100.172 157.793 99.983 134.219C100.189 108.44 99.5884 82.6616 100.292 56.8827V56.8827ZM106.072 76.9234C106.141 99.118 106.158 121.33 106.072 143.525C116.158 141.888 126.209 140.009 136.261 138.165C136.106 143.335 135.901 148.505 135.678 153.674C125.883 156.293 116.106 158.999 106.261 161.429C106.106 167.391 106.089 173.353 106.141 179.332C118.542 176.541 130.755 173.026 143.07 169.907C144.614 169.183 147.582 169.269 147.444 166.839C148.937 150.883 149.863 134.857 151.304 118.866C141.098 119.71 130.995 121.433 120.789 122.14C120.703 113.076 120.686 104.012 120.823 94.9479C131.561 94.9479 142.281 94.9479 153.019 94.9651C153.705 88.9167 154.305 82.8511 154.769 76.7855C138.542 76.8544 122.299 76.6304 106.072 76.9234Z" fill="#FFDA3E"/>
<path d="M78.8164 157.551C79.0394 130.583 78.5248 103.598 79.0737 76.6477C83.8764 76.7511 88.6792 76.8201 93.4819 76.9407C93.3619 111.077 93.5163 145.231 93.4133 179.367C78.6792 175.834 64.271 171.096 49.554 167.494C48.8679 161.532 48.7649 155.535 49.0565 149.539C59.108 151.693 68.9022 154.829 78.8164 157.551V157.551Z" fill="#EBEBEB"/>
</svg>
