<?xml version="1.0" encoding="utf-8"?>
<!-- Generator: Adobe Illustrator 24.3.0, SVG Export Plug-In . SVG Version: 6.00 Build 0)  -->
<svg version="1.1" id="Layer_1" xmlns="http://www.w3.org/2000/svg" xmlns:xlink="http://www.w3.org/1999/xlink" x="0px" y="0px"
	 viewBox="0 0 2048 2048" style="enable-background:new 0 0 2048 2048;" xml:space="preserve">
<style type="text/css">
	.st0{fill:#FFFFFF;}
</style>
<g>
	<path class="st0" d="M1024,378.75c-356.36,0-645.25,288.89-645.25,645.25s288.89,645.25,645.25,645.25s645.25-288.89,645.25-645.25
		S1380.36,378.75,1024,378.75z M891.35,1138.1c0,81.2-54.6,132.3-135.1,132.3c-81.2,0-135.8-51.8-135.8-137.2h63.7
		c0.7,44.8,21.7,80.5,72.1,80.5s70.7-35,70.7-75.6V777.6h64.4V1138.1z M1168.55,1265.5h-151.9V777.6h151.9c160.3,0,259,93.8,259,245
		S1328.85,1265.5,1168.55,1265.5z M1168.55,829.4h-88.2V1213h88.2c127.4,0,193.9-71.4,193.9-190.4S1295.95,829.4,1168.55,829.4z"/>
</g>
</svg>
