<svg width="50" height="50" viewBox="0 0 95 95" fill="none" xmlns="http://www.w3.org/2000/svg">
<path d="M47.2595 0C21.1589 0 0 21.1589 0 47.2595C0 73.3601 21.1589 94.519 47.2595 94.519C73.3601 94.519 94.519 73.3601 94.519 47.2595C94.519 21.1589 73.3601 0 47.2595 0ZM37.5439 55.6165C37.5439 61.5637 33.5449 65.3064 27.6489 65.3064C21.7017 65.3064 17.7026 61.5124 17.7026 55.2576H22.3682C22.4194 58.5388 23.9575 61.1536 27.6489 61.1536C31.3403 61.1536 32.8271 58.5901 32.8271 55.6165V29.2126H37.5439V55.6165ZM57.8467 64.9475H46.7212V29.2126H57.8467C69.5874 29.2126 76.8164 36.0828 76.8164 47.157C76.8164 58.2312 69.5874 64.9475 57.8467 64.9475ZM57.8467 33.0066H51.3867V61.1023H57.8467C67.1777 61.1023 72.0483 55.8728 72.0483 47.157C72.0483 38.4412 67.1777 33.0066 57.8467 33.0066Z" fill="white"/>
</svg>
