<svg width="250" height="72" viewBox="0 0 250 72" fill="none" xmlns="http://www.w3.org/2000/svg">
<path fill-rule="evenodd" clip-rule="evenodd" d="M233.038 29.4577C232.813 29.5029 232.587 29.9993 232.587 30.2698C232.542 32.0741 232.497 36.8562 232.497 40.104C232.497 40.1944 232.632 40.3746 232.768 40.3746C233.444 40.4197 235.068 40.4649 236.467 40.4649C238.406 40.4649 239.534 40.1944 240.166 39.9238C241.79 39.1117 242.557 37.3521 242.557 35.4123C242.557 31.0367 239.489 29.3674 234.933 29.3674C234.617 29.3227 233.715 29.3227 233.038 29.4577ZM244.677 49.6226C244.677 45.1566 241.384 42.6753 235.429 42.6753C235.159 42.6753 233.264 42.6301 232.813 42.7204C232.677 42.7656 232.497 42.8559 232.497 42.9914C232.497 46.1941 232.452 51.2919 232.587 53.2764C232.677 54.1336 233.309 55.3517 234.076 55.7126C234.888 56.1638 236.738 56.2537 238 56.2537C241.564 56.2537 244.677 54.2691 244.677 49.6226ZM223.836 26.9768C224.286 26.9768 225.64 27.1119 229.114 27.1119C232.407 27.1119 235.023 27.022 238.226 27.022C242.151 27.022 247.564 28.4203 247.564 34.2845C247.564 37.1719 245.534 39.4726 242.872 40.6004C242.737 40.6456 242.737 40.7355 242.872 40.7806C246.662 41.7282 250 44.074 250 48.4948C250 52.8257 247.293 55.5771 243.369 57.2916C240.978 58.329 238 58.6899 234.978 58.6899C232.677 58.6899 226.497 58.4193 223.069 58.5097C222.708 58.3742 223.384 56.7501 223.7 56.4795C224.512 56.4344 225.144 56.3892 226.001 56.1186C227.219 55.8029 227.354 55.4421 227.535 53.5926C227.625 52.0136 227.625 46.4195 227.625 42.4499C227.625 36.9913 227.67 33.2922 227.625 31.4879C227.58 30.0896 227.083 29.6384 226.091 29.3674C225.324 29.2324 224.061 29.0517 223.024 28.9166C222.798 28.6908 223.565 27.157 223.836 26.9768ZM197.806 55.036C198.889 55.8928 201.009 56.2537 202.904 56.2537C205.34 56.2537 207.776 55.8029 210.122 53.6825C212.513 51.5172 214.182 48.1791 214.182 42.8559C214.182 37.7582 212.242 33.608 208.272 31.1722C206.017 29.7734 203.129 29.1872 199.791 29.1872C198.799 29.1872 197.851 29.2324 197.265 29.5029C197.13 29.5932 196.814 29.9993 196.814 30.2246C196.724 31.127 196.724 38.0739 196.724 42.1342C196.724 46.3296 196.724 52.1938 196.814 52.8704C196.814 53.5474 197.13 54.5848 197.806 55.036ZM187.566 26.9768C188.423 26.9768 191.716 27.1119 193.295 27.1119C196.137 27.1119 198.167 26.9768 203.535 26.9768C208.046 26.9768 211.836 28.1949 214.543 30.4952C217.836 33.3374 219.55 37.2622 219.55 42.0439C219.55 48.8557 216.437 52.7805 213.324 55.036C210.212 57.3367 206.152 58.6899 200.378 58.6899C197.31 58.6899 192.032 58.5996 187.656 58.5544H187.611C187.386 58.1488 187.972 56.5698 188.333 56.5247C189.506 56.3892 189.821 56.344 190.408 56.1186C191.355 55.7578 191.536 55.2614 191.671 53.5926C191.806 50.4798 191.761 46.7356 191.761 42.4951C191.761 39.4726 191.806 33.5628 191.716 31.6681C191.581 30.0896 190.904 29.6835 189.551 29.4126C188.874 29.2775 187.972 29.0969 186.709 28.9618C186.528 28.6457 187.341 27.2474 187.566 26.9768Z" fill="#8E714E"/>
<path fill-rule="evenodd" clip-rule="evenodd" d="M132.982 56.7949C131.854 56.6594 131.042 56.4792 130.049 56.028C129.914 55.9377 129.688 55.4869 129.688 55.3063C129.598 53.7273 129.598 49.2162 129.598 46.1938C129.598 43.7576 129.192 41.6375 128.154 40.1489C126.936 38.4344 125.177 37.4421 122.922 37.4421C120.937 37.4421 118.275 38.7957 116.065 40.6904C116.019 40.7351 115.659 41.0513 115.704 40.5549C115.704 40.0586 115.794 39.0663 115.839 38.3897C115.884 37.7578 115.523 37.4421 115.523 37.4421C114.08 38.1639 110.02 39.1114 108.531 39.2465C107.448 39.4723 107.178 40.5097 108.306 40.8706H108.351C109.568 41.2315 110.381 41.6375 111.012 42.0435C111.463 42.4044 111.418 42.9008 111.418 43.3068C111.463 46.6901 111.463 51.8778 111.328 54.72C111.283 55.8478 110.967 56.2534 110.155 56.434L110.245 56.3889C109.614 56.5244 109.117 56.6594 108.35 56.7497C108.08 57.0203 108.08 58.4642 108.35 58.7799C108.847 58.7799 111.463 58.6444 113.629 58.6444C116.606 58.6444 118.14 58.7799 118.907 58.7799C119.222 58.419 119.313 57.0654 119.132 56.7497C118.275 56.7046 117.644 56.6147 117.057 56.434C116.245 56.2534 116.019 55.8478 115.974 54.9002C115.884 52.5092 115.884 47.457 115.884 44.0285C115.884 43.081 116.155 42.6298 116.425 42.3593C117.463 41.4573 119.132 40.8255 120.621 40.8255C122.064 40.8255 123.012 41.2766 123.734 41.8633C124.726 42.675 125.042 43.8479 125.177 44.7051C125.402 46.645 125.313 50.4795 125.313 53.8176C125.313 55.622 125.177 56.0732 124.5 56.2985C124.185 56.434 123.373 56.6147 122.425 56.7046C122.109 57.0203 122.2 58.419 122.425 58.7347C123.734 58.7347 125.267 58.5992 127.523 58.5992C130.32 58.5992 132.124 58.7347 132.846 58.7347C133.071 58.4642 133.162 57.1558 132.981 56.7949H132.982ZM145.477 39.5626C143.086 39.5626 141.598 41.4121 141.598 44.2991C141.598 47.2312 142.906 50.6145 146.605 50.6145C147.237 50.6145 148.409 50.344 148.951 49.7126C149.808 48.9005 150.394 47.2764 150.394 45.5623C150.394 41.8182 148.545 39.5626 145.477 39.5626ZM145.161 59.5016C144.259 59.5016 143.627 59.7722 143.222 59.998C141.327 61.2157 140.47 62.3886 140.47 63.7873C140.47 65.0953 140.966 66.1328 142.049 67.0352C143.357 68.1629 145.161 68.7045 147.462 68.7045C152.063 68.7045 154.093 66.2231 154.093 63.7873C154.093 62.0729 153.236 60.9451 151.477 60.3137C150.214 59.7722 147.913 59.5016 145.161 59.5016ZM145.477 71.2305C142.725 71.2305 140.74 70.6439 139.026 69.3359C137.357 68.0726 136.635 66.1779 136.635 64.8699C136.635 64.5091 136.726 63.5164 137.538 62.6144C138.034 62.0729 139.116 61.0354 141.688 59.2763C141.778 59.2311 141.823 59.1859 141.823 59.0956C141.823 59.0053 141.733 58.915 141.643 58.8702C139.522 58.0582 138.891 56.7497 138.71 56.028V55.9377C138.666 55.6671 138.575 55.3966 138.981 55.1256C139.297 54.9002 139.748 54.6297 140.244 54.314C141.011 53.8628 141.823 53.3664 142.319 52.9604C142.41 52.8701 142.41 52.7802 142.41 52.6898C142.41 52.5995 142.319 52.5092 142.229 52.4645C139.072 51.4266 137.493 49.0807 137.493 45.5623C137.493 43.2616 138.53 41.1863 140.38 39.8783C141.643 38.8856 144.8 37.6679 146.876 37.6679H147.011C149.131 37.7127 150.304 38.1639 151.973 38.7506C152.875 39.0663 153.733 39.2013 154.906 39.2013C156.665 39.2013 157.432 38.6602 158.063 38.0288C158.108 38.1187 158.199 38.3445 158.244 38.9308C158.289 39.5175 158.108 40.3743 157.657 41.0061C157.296 41.502 156.485 41.8633 155.672 41.8633H155.447C154.635 41.773 154.274 41.6827 154.274 41.6827L154.093 41.773C154.048 41.8633 154.093 41.9532 154.139 42.0887L154.184 42.179C154.274 42.5851 154.454 43.8027 154.454 44.1189C154.454 47.8179 152.966 49.4416 151.387 50.6597C149.853 51.7875 148.094 52.5092 146.109 52.6898C146.064 52.6898 145.883 52.6898 145.477 52.735C145.252 52.735 144.936 52.7802 144.891 52.7802H144.846C144.485 52.8701 143.583 53.3213 143.583 54.0882C143.583 54.7647 143.989 55.5768 145.928 55.7123C146.334 55.7575 146.74 55.7575 147.191 55.8026C149.763 55.9828 152.966 56.2086 154.454 56.7046C156.529 57.4715 157.838 59.321 157.838 61.5318C157.838 64.8699 155.447 67.9827 151.477 69.9221C149.537 70.7794 147.597 71.2305 145.477 71.2305ZM171.191 39.788C170.243 39.788 169.386 40.0134 168.755 40.4646C166.995 41.5472 166.093 43.7128 166.093 46.8703C166.093 52.7802 169.07 56.9304 173.311 56.9304C174.574 56.9304 175.566 56.5695 176.424 55.8478C177.732 54.7647 178.409 52.5995 178.409 49.5771C178.409 43.7128 175.476 39.788 171.191 39.788ZM172.003 59.0956C164.334 59.0956 161.582 53.4567 161.582 48.1788C161.582 44.4797 163.071 41.6375 166.048 39.6074C168.168 38.2994 170.694 37.5776 172.95 37.5776C178.814 37.5776 182.92 41.773 182.92 47.8179C182.92 51.9229 181.296 55.1708 178.183 57.1558C176.694 58.1481 174.123 59.0956 172.002 59.0956H172.003ZM91.6144 39.788C90.6669 39.788 89.8101 40.0134 89.1783 40.4646C87.4191 41.5472 86.5167 43.7128 86.5167 46.8703C86.5167 52.7802 89.494 56.9304 93.7345 56.9304C94.9978 56.9304 95.99 56.5695 96.8473 55.8478C98.1553 54.7647 98.8323 52.5995 98.8323 49.5771C98.8323 43.7128 95.9449 39.788 91.6144 39.788ZM92.4265 59.0956C84.7575 59.0956 82.0056 53.4567 82.0056 48.1788C82.0056 44.4797 83.4942 41.6375 86.4715 39.6074C88.592 38.2994 91.1181 37.5776 93.3736 37.5776C99.2383 37.5776 103.343 41.773 103.343 47.8179C103.343 51.9229 101.719 55.1708 98.6065 57.1558C97.163 58.1481 94.5917 59.0956 92.4265 59.0956ZM40.8643 58.6444C40.774 58.5094 40.6837 58.1033 40.7288 57.607C40.7288 57.2461 40.8191 57.0203 40.8643 56.9304C41.8114 56.7949 42.3078 56.6594 42.8489 56.5244C43.7513 56.2985 44.1121 55.8026 44.1573 54.6748C44.2928 51.9681 44.2928 46.8252 44.2476 43.2616V43.1713C44.2476 42.7653 44.2476 42.2689 43.7513 41.9081C43.0295 41.4573 42.1723 41.0513 41.0445 40.7351C40.6385 40.6001 40.368 40.3743 40.4131 40.1037C40.4131 39.8332 40.6837 39.5175 41.2703 39.4271C42.759 39.2917 46.6382 38.3445 48.172 37.6679C48.2624 37.7578 48.3978 38.0288 48.3978 38.3897L48.3527 38.8856C48.3075 39.382 48.2624 39.9687 48.2624 40.5549C48.2624 40.7351 48.443 40.8706 48.6232 40.8706C48.7135 40.8706 48.8039 40.8255 48.8942 40.7803C51.7812 38.5247 54.3976 37.7127 55.7507 37.7127C57.9615 37.7127 59.6756 38.7506 60.984 40.9158C61.0739 41.0513 61.1642 41.096 61.2997 41.096C61.39 41.096 61.5251 41.0513 61.5702 40.9609C64.2318 38.9308 66.8934 37.7127 68.6526 37.7127C72.8479 37.7127 75.3293 40.8255 75.3293 46.1034C75.3293 47.5921 75.3293 49.5319 75.2841 51.2915C75.2841 52.8701 75.239 54.314 75.239 55.3514C75.239 55.5768 75.5547 56.2985 76.051 56.434C76.6824 56.7497 77.5397 56.8852 78.6674 57.0654H78.7126C78.8029 57.3812 78.6223 58.5541 78.4421 58.7799C78.1711 58.7799 77.7651 58.7799 77.3143 58.7347C76.4571 58.6896 75.239 58.6444 73.8858 58.6444C71.0888 58.6444 69.6453 58.6896 68.2465 58.7799C68.1566 58.419 68.1115 57.3364 68.2465 57.0654C69.0586 56.9304 69.4646 56.7949 69.961 56.6594C70.8634 56.3889 71.0888 55.9828 71.1339 54.8099C71.1339 53.9531 71.3141 46.645 71.0436 44.8853C70.773 43.081 69.4195 40.9609 66.4422 40.9609C65.3144 40.9609 63.5552 41.4121 61.8408 42.7201C61.7509 42.8104 61.6605 43.0358 61.6605 43.1713V43.2165C61.8408 44.1636 61.8408 45.2466 61.8408 46.9155V49.8476C61.8408 51.8778 61.7956 53.7725 61.8408 55.2159C61.8408 56.2086 62.4275 56.434 62.9238 56.6147C63.1944 56.6594 63.3746 56.7046 63.6004 56.7497C64.0064 56.8401 64.4125 56.9304 65.0439 57.0654C65.1342 57.2461 65.1342 57.8324 64.9987 58.3287C64.9535 58.5993 64.8632 58.7347 64.8185 58.7799C63.2847 58.7347 61.7057 58.6896 59.405 58.6896C58.7284 58.6896 57.5555 58.7347 56.5628 58.7347C55.7507 58.7347 54.9838 58.7799 54.533 58.7799C54.4879 58.6896 54.3976 58.3739 54.3976 57.8775C54.3976 57.4715 54.4879 57.1558 54.5782 57.0654C54.8036 57.0203 54.9838 56.9755 55.2096 56.9755C55.7507 56.8852 56.2019 56.7949 56.6531 56.7046C57.42 56.4792 57.6906 56.0732 57.7357 55.0809C57.8712 52.8253 58.0063 46.3744 57.6906 44.7503C57.1495 42.1339 55.6608 40.8255 53.2698 40.8255C51.8715 40.8255 50.1119 41.502 48.6684 42.5851C48.443 42.7653 48.2624 43.2165 48.2624 43.6225V46.2841C48.2624 49.5319 48.2624 53.5922 48.3075 55.3514C48.3527 55.8925 48.5329 56.5244 49.5708 56.7497C49.7962 56.7949 50.157 56.8852 50.6082 56.9304L51.4203 57.0654C51.5106 57.3364 51.4654 58.419 51.2848 58.7799C50.8336 58.7799 50.2925 58.7347 49.6607 58.7347C48.7135 58.6896 47.4955 58.6444 46.1423 58.6444C44.5633 58.6444 43.4356 58.6896 42.5332 58.7347C41.9018 58.6444 41.4054 58.6444 40.8643 58.6444Z" fill="#442D22"/>
<path fill-rule="evenodd" clip-rule="evenodd" d="M17.1356 69.4715L15.2861 68.8396C15.2861 68.8396 15.5119 59.4114 12.1285 58.7348C9.873 56.1184 12.4894 -52.2388 20.6092 58.374C20.6092 58.374 17.8126 59.7723 17.3162 62.1633C16.7747 64.5092 17.1356 69.4715 17.1356 69.4715Z" fill="white"/>
<path fill-rule="evenodd" clip-rule="evenodd" d="M17.1356 69.4715L15.2861 68.8396C15.2861 68.8396 15.5119 59.4114 12.1285 58.7348C9.873 56.1184 12.4894 -52.2388 20.6092 58.374C20.6092 58.374 17.8126 59.7723 17.3162 62.1633C16.7747 64.5092 17.1356 69.4715 17.1356 69.4715Z" fill="#A6A385"/>
<path fill-rule="evenodd" clip-rule="evenodd" d="M18.1284 60.359C18.1284 60.359 34.3232 49.7127 30.5338 27.5629C26.88 11.4584 18.2634 6.18039 17.3163 4.15023C16.2788 2.70675 15.2861 0.180664 15.2861 0.180664L15.9631 44.9758C15.9631 45.021 14.5644 58.6897 18.1284 60.359Z" fill="white"/>
<path fill-rule="evenodd" clip-rule="evenodd" d="M18.1284 60.359C18.1284 60.359 34.3232 49.7127 30.5338 27.5629C26.88 11.4584 18.2634 6.18039 17.3163 4.15023C16.2788 2.70675 15.2861 0.180664 15.2861 0.180664L15.9631 44.9758C15.9631 45.021 14.5644 58.6897 18.1284 60.359Z" fill="#499D4A"/>
<path fill-rule="evenodd" clip-rule="evenodd" d="M14.3388 60.9452C14.3388 60.9452 -0.863746 50.5695 0.0386398 32.2998C0.895442 14.0296 11.6321 5.0526 13.707 3.42848C15.0605 1.985 15.1057 1.44348 15.196 0C16.1432 2.03016 15.9629 30.3599 16.098 33.6981C16.504 46.5548 15.3762 58.5095 14.3388 60.9452Z" fill="white"/>
<path fill-rule="evenodd" clip-rule="evenodd" d="M14.3388 60.9452C14.3388 60.9452 -0.863746 50.5695 0.0386398 32.2998C0.895442 14.0296 11.6321 5.0526 13.707 3.42848C15.0605 1.985 15.1057 1.44348 15.196 0C16.1432 2.03016 15.9629 30.3599 16.098 33.6981C16.504 46.5548 15.3762 58.5095 14.3388 60.9452Z" fill="#58AA50"/>
</svg>
