<svg width="150" height="113" viewBox="0 0 150 113" fill="none" xmlns="http://www.w3.org/2000/svg">
<path d="M129.127 64.564C123.883 64.5936 119.341 65.8532 115.532 67.7287C114.126 64.9452 112.72 62.5131 112.485 60.6968C112.222 58.5873 111.899 57.2978 112.222 54.7783C112.544 52.2583 114.009 48.6837 114.009 48.3908C113.979 48.1271 113.686 46.8379 110.669 46.8086C107.651 46.7793 105.043 47.3946 104.75 48.1857C104.457 48.9767 103.871 50.7933 103.49 52.6685C102.963 55.4226 97.4545 65.1793 94.3195 70.3067C93.294 68.3144 92.415 66.5564 92.2389 65.1497C91.9755 63.0405 91.6529 61.751 91.9755 59.2315C92.2978 56.7115 93.7628 53.1373 93.7628 52.8443C93.7335 52.5806 93.4405 51.2914 90.4229 51.2621C87.4048 51.2328 84.7974 51.8481 84.5044 52.6392C84.2114 53.4303 83.8892 55.3054 83.2446 57.122C82.629 58.9386 75.3041 75.229 73.3997 79.4775C72.4328 81.6456 71.5834 83.3743 70.9678 84.5463C70.3525 85.7182 70.9385 84.6342 70.8799 84.7514C70.3525 85.7475 70.0595 86.3042 70.0595 86.3042V86.3338C69.6493 87.0663 69.2098 87.7692 69.0045 87.7692C68.858 87.7692 68.565 85.8061 69.0631 83.1109C70.1471 77.4558 72.7841 68.637 72.7551 68.3147C72.7551 68.1682 73.2529 66.615 71.0554 65.8242C68.9166 65.0331 68.1551 66.3516 67.979 66.3516C67.8032 66.3516 67.6567 66.8204 67.6567 66.8204C67.6567 66.8204 70.0299 56.8882 63.1153 56.8882C58.779 56.8882 52.8019 61.6054 49.8426 65.9124C47.9675 66.9379 43.9827 69.1057 39.7636 71.4207C38.1522 72.2997 36.4821 73.2373 34.8999 74.0869L34.5779 73.7348C26.1983 64.7984 10.6989 58.4698 11.3435 46.457C11.5779 42.0914 13.1014 30.5767 41.112 16.6302C64.0534 5.2034 82.4242 8.33844 85.6175 15.3117C90.1589 25.2735 75.8022 43.7907 51.9528 46.457C42.87 47.4825 38.0939 43.9665 36.8929 42.6481C35.633 41.271 35.4572 41.2124 34.9884 41.4761C34.2266 41.8863 34.6954 43.1169 34.9884 43.8493C35.6916 45.6952 38.6215 48.9767 43.6024 50.6175C47.9678 52.0532 58.633 52.8443 71.5248 47.8634C85.9694 42.2672 97.2497 26.7385 93.9389 13.7588C90.5694 0.544792 68.6535 -3.79152 47.9388 3.56263C35.6034 7.95755 22.2429 14.8136 12.6326 23.8085C1.20587 34.4735 -0.610698 43.7907 0.151087 47.6583C2.81763 61.4583 21.8327 70.4532 29.4505 77.1042C29.0696 77.309 28.718 77.5141 28.3957 77.6902C24.5868 79.5651 10.0836 87.1539 6.45046 95.1817C2.34854 104.264 7.09505 110.799 10.2594 111.678C20.0454 114.402 30.0658 109.509 35.4862 101.452C40.877 93.3947 40.2327 82.9348 37.7423 78.159L37.6541 77.9832L40.6426 76.2252C42.5767 75.0825 44.4811 74.0278 46.1509 73.1192C45.2136 75.6682 44.5394 78.6861 44.1881 83.081C43.7779 88.238 45.8875 94.918 48.6709 97.5549C49.9015 98.6973 51.3665 98.7269 52.2748 98.7269C55.4977 98.7269 56.9627 96.0603 58.5742 92.867C60.5665 88.9702 62.3245 84.4581 62.3245 84.4581C62.3245 84.4581 60.127 96.6759 66.1334 96.6759C68.3309 96.6759 70.5283 93.8339 71.5245 92.3689V92.3982C71.5245 92.3982 71.5831 92.3103 71.7003 92.1052C71.8232 91.9234 71.9405 91.7379 72.0519 91.5488V91.4902C72.9309 89.9667 74.8939 86.48 77.8239 80.708C81.6032 73.266 85.2366 63.9488 85.2366 63.9488C85.2366 63.9488 85.5882 66.2341 86.6723 69.9844C87.3166 72.2115 88.723 74.6431 89.8071 77.0163C88.9281 78.2469 88.4007 78.9504 88.4007 78.9504L88.43 78.9797C87.7271 79.9172 86.9357 80.9137 86.1156 81.9096C83.1271 85.4841 79.5525 89.557 79.0838 90.729C78.5271 92.1058 78.6443 93.1313 79.7283 93.952C80.5194 94.538 81.9258 94.6549 83.4201 94.538C86.1156 94.3619 87.9908 93.6883 88.9284 93.2778C90.3933 92.7504 92.0634 91.9593 93.6749 90.7873C96.6048 88.6195 98.3921 85.543 98.2163 81.4411C98.1284 79.185 97.3959 76.9583 96.4876 74.8487C96.7513 74.4678 97.0153 74.0866 97.2787 73.6767C101.908 66.9083 105.483 59.4665 105.483 59.4665C105.483 59.4665 105.834 61.7519 106.918 65.5022C107.475 67.4067 108.588 69.4872 109.584 71.5382C105.248 75.0834 102.523 79.1853 101.586 81.8809C99.8571 86.8618 101.205 89.1178 103.754 89.6452C104.896 89.8796 106.537 89.3522 107.768 88.8249C109.291 88.3268 111.137 87.4768 112.837 86.2172C115.767 84.049 118.579 81.0312 118.433 76.9586C118.345 75.0834 117.847 73.2376 117.173 71.4796C120.865 69.956 125.64 69.077 131.706 69.8095C144.744 71.3331 147.322 79.4783 146.824 82.8771C146.326 86.2761 143.601 88.151 142.693 88.737C141.785 89.2936 141.492 89.499 141.579 89.9089C141.697 90.5245 142.107 90.4949 142.898 90.378C143.982 90.2019 149.754 87.5946 149.988 81.3248C150.34 73.2663 142.693 64.4764 129.127 64.564V64.564ZM28.5715 98.4635C24.2645 103.181 18.1995 104.968 15.6212 103.444C12.8377 101.833 13.9215 94.889 19.225 89.8788C22.448 86.8316 26.6378 84.0189 29.3919 82.2902C30.0072 81.9093 30.9448 81.3529 32.0582 80.6787C32.234 80.5618 32.3512 80.5029 32.3512 80.5029C32.5563 80.3857 32.7907 80.2392 33.025 80.0927C34.9881 87.2418 33.1129 93.5119 28.5715 98.4635V98.4635ZM60.0684 77.0456C58.5742 80.708 55.4098 90.1131 53.5054 89.5858C51.8643 89.1463 50.8684 82.0265 53.1828 74.9946C54.3547 71.4491 56.8452 67.2303 58.3102 65.5892C60.6837 62.9523 63.2618 62.0733 63.9067 63.1574C64.6684 64.564 61.006 74.7603 60.0684 77.0456ZM86.057 89.4686C85.4124 89.7911 84.8264 90.0253 84.5627 89.8497C84.3577 89.7325 84.8261 89.2931 84.8261 89.2931C84.8261 89.2931 88.0784 85.8064 89.3676 84.195C90.1 83.2577 90.979 82.1736 91.9166 80.9427V81.2943C91.9169 85.5131 87.8736 88.3259 86.057 89.4686ZM106.098 84.8978C105.629 84.5463 105.688 83.4622 107.27 80.0634C107.885 78.7157 109.291 76.4596 111.723 74.3207C112.016 75.1997 112.192 76.0491 112.163 76.8405C112.134 82.1144 108.383 84.0775 106.098 84.8978Z" fill="#CF649A"/>
</svg>
